<svg width="60" height="60" viewBox="0 0 60 60" fill="none" xmlns="http://www.w3.org/2000/svg">
<g filter="url(#filter0_ddd_248_134)">
<rect x="4" y="4" width="52" height="52" rx="12" fill="#15131D"/>
<rect x="4.58594" y="4.58594" width="50.8281" height="50.8281" rx="11.4141" stroke="white" stroke-opacity="0.15" stroke-width="1.17188"/>
</g>
<path d="M30 15C26.0218 15 22.2064 16.5804 19.3934 19.3934C16.5804 22.2064 15 26.0218 15 30C15 33.9782 16.5804 37.7936 19.3934 40.6066C22.2064 43.4196 26.0218 45 30 45C33.9782 45 37.7936 43.4196 40.6066 40.6066C43.4196 37.7936 45 33.9782 45 30C45 26.0218 43.4196 22.2064 40.6066 19.3934C37.7936 16.5804 33.9782 15 30 15ZM33.9538 42.2288H33.8375C33.7502 42.2337 33.6628 42.2207 33.5807 42.1906C33.4985 42.1605 33.4235 42.1139 33.36 42.0537C33.3014 41.9918 33.2557 41.9187 33.2256 41.8389C33.1956 41.759 33.1818 41.674 33.185 41.5887V39.8312C33.1925 39.2475 33.1975 38.6562 33.1975 38.0612C33.1955 37.6262 33.1319 37.1935 33.0087 36.7762C32.8921 36.3544 32.657 35.9748 32.3312 35.6825C33.2025 35.5984 34.059 35.4005 34.8787 35.0938C35.5703 34.8308 36.1958 34.4195 36.7112 33.8888C37.22 33.355 37.5987 32.71 37.8175 32.0062C38.0836 31.1444 38.2102 30.2456 38.1925 29.3438C38.1974 28.7141 38.0872 28.0888 37.8675 27.4987C37.6442 26.904 37.3066 26.3587 36.8738 25.8938C36.9672 25.6592 37.0351 25.4153 37.0762 25.1663C37.1175 24.9163 37.1388 24.6637 37.1388 24.4112C37.1388 24.0862 37.1013 23.7613 37.0263 23.445C36.9581 23.1206 36.8658 22.8018 36.75 22.4913C36.7058 22.474 36.6587 22.4655 36.6112 22.4663H36.4738C36.1863 22.4688 35.9037 22.5163 35.6312 22.605C35.3311 22.6926 35.0374 22.8012 34.7525 22.93C34.4691 23.057 34.1933 23.2002 33.9262 23.3587C33.6575 23.5175 33.42 23.67 33.21 23.8112C31.1072 23.2252 28.8841 23.2252 26.7813 23.8112C26.5467 23.6545 26.3083 23.5036 26.0662 23.3587C25.7955 23.1988 25.5149 23.0561 25.2262 22.9312C24.9421 22.7982 24.6473 22.6891 24.345 22.605C24.0779 22.5168 23.7988 22.47 23.5175 22.4663H23.38C23.333 22.4656 23.2863 22.4741 23.2425 22.4913C23.1251 22.8023 23.029 23.1209 22.955 23.445C22.8875 23.7625 22.855 24.0862 22.8537 24.4112C22.8537 24.6637 22.875 24.9163 22.9175 25.1663C22.9588 25.415 23.025 25.6588 23.1175 25.8938C22.6857 26.3594 22.3494 26.9051 22.1275 27.5C21.9066 28.0899 21.7952 28.7151 21.7988 29.345C21.7813 30.242 21.9044 31.1362 22.1637 31.995C22.39 32.6987 22.7675 33.345 23.2687 33.89C23.7875 34.4175 24.4125 34.8275 25.1013 35.095C25.9175 35.4075 26.7725 35.6075 27.6425 35.69C27.3996 35.9102 27.2069 36.18 27.0775 36.4812C26.9544 36.7792 26.8704 37.0918 26.8275 37.4113C26.3689 37.6308 25.8673 37.7461 25.3587 37.7487C24.8865 37.7676 24.4204 37.6364 24.0275 37.3738C23.6505 37.0944 23.3313 36.7446 23.0875 36.3438C22.9784 36.1754 22.8563 36.0157 22.7225 35.8663C22.5813 35.7091 22.4256 35.5655 22.2575 35.4375C22.0918 35.3137 21.9102 35.2128 21.7175 35.1375C21.5279 35.0544 21.3232 35.0114 21.1163 35.0113C21.0663 35.0125 21.0162 35.0175 20.9662 35.0237C20.898 35.0235 20.8299 35.0319 20.7638 35.0487C20.7056 35.064 20.6506 35.0894 20.6012 35.1238C20.5788 35.1361 20.5601 35.1542 20.5469 35.1761C20.5337 35.1981 20.5266 35.2231 20.5263 35.2487C20.5315 35.3089 20.5499 35.3672 20.5801 35.4194C20.6104 35.4717 20.6517 35.5167 20.7012 35.5512C20.8175 35.6437 20.9138 35.715 20.9913 35.765L21.0287 35.7912C21.195 35.92 21.355 36.0587 21.5062 36.2075C21.6462 36.33 21.7725 36.4687 21.8813 36.62C21.9938 36.7687 22.0913 36.9275 22.17 37.0963C22.2613 37.2638 22.3575 37.4562 22.4588 37.675C22.6938 38.2675 23.1112 38.7687 23.6513 39.1062C24.2175 39.41 24.8525 39.5612 25.4963 39.545C25.7138 39.545 25.9325 39.5325 26.1487 39.5075C26.3637 39.4725 26.5775 39.4362 26.7925 39.3937V41.5725C26.7964 41.6603 26.7817 41.748 26.7494 41.8298C26.7171 41.9116 26.6679 41.9856 26.605 42.0471C26.5421 42.1086 26.467 42.1561 26.3845 42.1865C26.302 42.217 26.214 42.2296 26.1263 42.2237H26.0487C23.1338 41.2821 20.6508 39.3306 19.047 36.7208C17.4431 34.1109 16.8237 31.0142 17.3004 27.9882C17.777 24.9623 19.3183 22.2059 21.6468 20.2155C23.9753 18.225 26.938 17.1313 30.0013 17.1313C33.0645 17.1313 36.0272 18.225 38.3557 20.2155C40.6842 22.2059 42.2255 24.9623 42.7021 27.9882C43.1788 31.0142 42.5594 34.1109 40.9555 36.7208C39.3517 39.3306 36.8687 41.2821 33.9538 42.2237V42.2288Z" fill="white"/>
<defs>
<filter id="filter0_ddd_248_134" x="2.59375" y="3.29688" width="54.8125" height="54.8125" filterUnits="userSpaceOnUse" color-interpolation-filters="sRGB">
<feFlood flood-opacity="0" result="BackgroundImageFix"/>
<feColorMatrix in="SourceAlpha" type="matrix" values="0 0 0 0 0 0 0 0 0 0 0 0 0 0 0 0 0 0 127 0" result="hardAlpha"/>
<feOffset dy="0.703125"/>
<feGaussianBlur stdDeviation="0.703125"/>
<feComposite in2="hardAlpha" operator="out"/>
<feColorMatrix type="matrix" values="0 0 0 0 0 0 0 0 0 0 0 0 0 0 0 0 0 0 0.1 0"/>
<feBlend mode="normal" in2="BackgroundImageFix" result="effect1_dropShadow_248_134"/>
<feColorMatrix in="SourceAlpha" type="matrix" values="0 0 0 0 0 0 0 0 0 0 0 0 0 0 0 0 0 0 127 0" result="hardAlpha"/>
<feOffset dy="0.46875"/>
<feGaussianBlur stdDeviation="0.351562"/>
<feComposite in2="hardAlpha" operator="out"/>
<feColorMatrix type="matrix" values="0 0 0 0 0 0 0 0 0 0 0 0 0 0 0 0 0 0 0.1 0"/>
<feBlend mode="normal" in2="effect1_dropShadow_248_134" result="effect2_dropShadow_248_134"/>
<feColorMatrix in="SourceAlpha" type="matrix" values="0 0 0 0 0 0 0 0 0 0 0 0 0 0 0 0 0 0 127 0" result="hardAlpha"/>
<feOffset dy="0.117188"/>
<feGaussianBlur stdDeviation="0.117188"/>
<feComposite in2="hardAlpha" operator="out"/>
<feColorMatrix type="matrix" values="0 0 0 0 0 0 0 0 0 0 0 0 0 0 0 0 0 0 0.1 0"/>
<feBlend mode="normal" in2="effect2_dropShadow_248_134" result="effect3_dropShadow_248_134"/>
<feBlend mode="normal" in="SourceGraphic" in2="effect3_dropShadow_248_134" result="shape"/>
</filter>
</defs>
</svg>
