<svg width="60" height="60" viewBox="0 0 60 60" fill="none" xmlns="http://www.w3.org/2000/svg">
<g filter="url(#filter0_ddd_248_126)">
<rect x="4" y="4" width="52" height="52" rx="12" fill="#15131D"/>
<rect x="4.58594" y="4.58594" width="50.8281" height="50.8281" rx="11.4141" stroke="white" stroke-opacity="0.15" stroke-width="1.17188"/>
</g>
<path d="M30.5 26.4512C29.9683 26.4512 29.4418 26.556 28.9506 26.7594C28.4594 26.9629 28.0131 27.2611 27.6371 27.6371C27.2611 28.0131 26.9629 28.4594 26.7594 28.9506C26.556 29.4418 26.4512 29.9683 26.4512 30.5C26.4512 31.0317 26.556 31.5582 26.7594 32.0494C26.9629 32.5406 27.2611 32.9869 27.6371 33.3629C28.0131 33.7389 28.4594 34.0371 28.9506 34.2406C29.4418 34.444 29.9683 34.5488 30.5 34.5488C31.5738 34.5488 32.6036 34.1222 33.3629 33.3629C34.1222 32.6036 34.5488 31.5738 34.5488 30.5C34.5488 29.4262 34.1222 28.3964 33.3629 27.6371C32.6036 26.8778 31.5738 26.4512 30.5 26.4512ZM30.5 23.7509C31.3956 23.7364 32.2852 23.9003 33.1168 24.233C33.9484 24.5657 34.7056 25.0606 35.344 25.6888C35.9825 26.3171 36.4896 27.0661 36.8357 27.8922C37.1819 28.7184 37.3601 29.6052 37.3601 30.5009C37.3601 31.3966 37.1819 32.2834 36.8357 33.1095C36.4896 33.9357 35.9825 34.6847 35.344 35.3129C34.7056 35.9412 33.9484 36.4361 33.1168 36.7688C32.2852 37.1015 31.3956 37.2654 30.5 37.2509C28.7096 37.2509 26.9924 36.5396 25.7264 35.2736C24.4604 34.0076 23.7491 32.2904 23.7491 30.5C23.7491 28.7096 24.4604 26.9924 25.7264 25.7264C26.9924 24.4604 28.7096 23.7509 30.5 23.7509ZM39.2744 23.4133C39.2817 23.6395 39.2435 23.8647 39.162 24.0758C39.0805 24.2868 38.9575 24.4793 38.8001 24.6419C38.6427 24.8044 38.4543 24.9337 38.246 25.0219C38.0377 25.1102 37.8138 25.1557 37.5875 25.1557C37.3613 25.1557 37.1374 25.1102 36.9291 25.0219C36.7208 24.9337 36.5324 24.8044 36.375 24.6419C36.2176 24.4793 36.0946 24.2868 36.0131 24.0758C35.9316 23.8647 35.8934 23.6395 35.9007 23.4133C35.9007 22.9657 36.0785 22.5364 36.395 22.2199C36.7115 21.9034 37.1408 21.7256 37.5884 21.7256C38.036 21.7256 38.4653 21.9034 38.7818 22.2199C39.0983 22.5364 39.2744 22.9657 39.2744 23.4133ZM30.5 19.7021C27.1599 19.7021 26.6156 19.7092 25.0622 19.7781C24.0018 19.8294 23.2932 19.9707 22.634 20.227C22.049 20.4532 21.6267 20.7254 21.176 21.176C20.7519 21.5842 20.4285 22.0826 20.2252 22.634C19.969 23.2949 19.8276 24.0036 19.7781 25.0622C19.7074 26.552 19.7004 27.0733 19.7004 30.5C19.7004 33.8401 19.7092 34.3862 19.7781 35.9396C19.8294 36.9964 19.9707 37.7068 20.2252 38.366C20.455 38.9527 20.7254 39.3751 21.1742 39.824C21.6284 40.2764 22.0508 40.5486 22.6322 40.773C23.2985 41.031 24.0089 41.1742 25.0622 41.2219C26.552 41.2926 27.0733 41.2996 30.5 41.2996C33.8401 41.2996 34.3862 41.2908 35.9396 41.2219C36.9946 41.1724 37.7068 41.031 38.366 40.7748C38.9492 40.5468 39.3751 40.2764 39.824 39.8275C40.2782 39.3716 40.5486 38.9492 40.773 38.3696C41.031 37.7033 41.1742 36.9911 41.2219 35.9396C41.2926 34.4498 41.2996 33.9285 41.2996 30.5C41.2996 27.1599 41.2908 26.6156 41.2219 25.0622C41.1724 24.0054 41.031 23.2932 40.773 22.634C40.5696 22.0832 40.2453 21.585 39.824 21.176C39.416 20.7531 38.9175 20.4281 38.366 20.2252C37.7051 19.969 36.9946 19.8276 35.9396 19.7781C34.4498 19.7074 33.9285 19.7021 30.5 19.7021ZM30.5 17C34.1688 17 34.6265 17.0141 36.0651 17.0813C37.5036 17.1484 38.4809 17.3747 39.3433 17.7087C40.234 18.0515 40.9851 18.5163 41.7344 19.2656C42.4218 19.9407 42.9538 20.7572 43.2913 21.6585C43.6253 22.5173 43.8516 23.4964 43.9187 24.9349C43.9823 26.3752 44 26.833 44 30.5018C44 34.1688 43.9859 34.6265 43.9187 36.0651C43.8516 37.5036 43.6253 38.4809 43.2913 39.3433C42.9538 40.2446 42.4218 41.0611 41.7362 41.7344C41.0609 42.4208 40.2444 42.952 39.3433 43.2913C38.4827 43.6253 37.5018 43.8516 36.0651 43.9187C34.6265 43.9823 34.1688 44 30.5 44C26.833 44 26.3752 43.9859 24.9349 43.9187C23.4982 43.8516 22.5191 43.6253 21.6585 43.2913C20.757 42.9536 19.9403 42.4228 19.2656 41.7362C18.5794 41.0611 18.0487 40.2445 17.7104 39.3433C17.3747 38.4827 17.1484 37.5018 17.0813 36.0651C17.0177 34.6265 17 34.1688 17 30.5C17 26.833 17.0141 26.3752 17.0813 24.9349C17.1484 23.4964 17.3747 22.5191 17.7087 21.6585C18.048 20.7572 18.5782 19.9407 19.2656 19.2656C19.9405 18.5792 20.7571 18.0484 21.6585 17.7104C22.5191 17.3747 23.4964 17.1484 24.9349 17.0813C26.3752 17.0177 26.833 17 30.5018 17H30.5Z" fill="white"/>
<defs>
<filter id="filter0_ddd_248_126" x="2.59375" y="3.29688" width="54.8125" height="54.8125" filterUnits="userSpaceOnUse" color-interpolation-filters="sRGB">
<feFlood flood-opacity="0" result="BackgroundImageFix"/>
<feColorMatrix in="SourceAlpha" type="matrix" values="0 0 0 0 0 0 0 0 0 0 0 0 0 0 0 0 0 0 127 0" result="hardAlpha"/>
<feOffset dy="0.703125"/>
<feGaussianBlur stdDeviation="0.703125"/>
<feComposite in2="hardAlpha" operator="out"/>
<feColorMatrix type="matrix" values="0 0 0 0 0 0 0 0 0 0 0 0 0 0 0 0 0 0 0.1 0"/>
<feBlend mode="normal" in2="BackgroundImageFix" result="effect1_dropShadow_248_126"/>
<feColorMatrix in="SourceAlpha" type="matrix" values="0 0 0 0 0 0 0 0 0 0 0 0 0 0 0 0 0 0 127 0" result="hardAlpha"/>
<feOffset dy="0.46875"/>
<feGaussianBlur stdDeviation="0.351562"/>
<feComposite in2="hardAlpha" operator="out"/>
<feColorMatrix type="matrix" values="0 0 0 0 0 0 0 0 0 0 0 0 0 0 0 0 0 0 0.1 0"/>
<feBlend mode="normal" in2="effect1_dropShadow_248_126" result="effect2_dropShadow_248_126"/>
<feColorMatrix in="SourceAlpha" type="matrix" values="0 0 0 0 0 0 0 0 0 0 0 0 0 0 0 0 0 0 127 0" result="hardAlpha"/>
<feOffset dy="0.117188"/>
<feGaussianBlur stdDeviation="0.117188"/>
<feComposite in2="hardAlpha" operator="out"/>
<feColorMatrix type="matrix" values="0 0 0 0 0 0 0 0 0 0 0 0 0 0 0 0 0 0 0.1 0"/>
<feBlend mode="normal" in2="effect2_dropShadow_248_126" result="effect3_dropShadow_248_126"/>
<feBlend mode="normal" in="SourceGraphic" in2="effect3_dropShadow_248_126" result="shape"/>
</filter>
</defs>
</svg>
