<svg width="2316" height="396" viewBox="0 0 2316 396" fill="none" xmlns="http://www.w3.org/2000/svg">
<path d="M155.769 381C126 381 99.3462 374.048 75.8077 360.145C52.2692 346.242 33.75 325.214 20.25 297.06C6.75 268.558 0 233.627 0 192.265C0 153.684 6.92308 121.185 20.7692 94.7692C34.9615 68.0057 53.8269 48.0199 77.3654 34.812C100.904 21.604 127.038 15 155.769 15C181.038 15 204.058 19.5185 224.827 28.5555C245.942 37.5926 262.558 50.1054 274.673 66.094C286.788 81.735 292.846 98.9402 292.846 117.709C292.846 138.217 286.269 154.727 273.115 167.239C260.308 179.752 244.212 186.009 224.827 186.009C219.288 186.009 213.058 185.661 206.135 184.966C199.212 183.923 192.635 183.054 186.404 182.359C173.596 179.926 163.731 178.709 156.808 178.709C152.308 178.709 148.673 180.1 145.904 182.88C143.135 185.313 141.75 188.442 141.75 192.265C141.75 195.741 143.135 198.869 145.904 201.65C148.673 204.43 152.308 205.821 156.808 205.821C163.731 205.821 173.596 204.604 186.404 202.171C192.635 201.476 199.212 200.781 206.135 200.085C213.058 199.043 219.288 198.521 224.827 198.521C245.596 198.521 262.731 205.299 276.231 218.855C290.077 232.063 297 249.615 297 271.513C297 291.672 290.769 310.094 278.308 326.778C265.846 343.462 248.712 356.67 226.904 366.402C205.442 376.134 181.731 381 155.769 381Z" fill="white"/>
<path d="M497 380C468.227 380 442.053 373.24 418.48 359.72C394.907 346.2 376.013 325.4 361.8 297.32C347.933 268.893 341 233.707 341 191.76C341 153.973 347.933 121.907 361.8 95.56C376.013 68.8667 394.907 48.9333 418.48 35.76C442.4 22.5867 468.573 16 497 16C525.773 16 551.947 22.5867 575.52 35.76C599.44 48.9333 618.333 68.8667 632.2 95.56C646.067 121.907 653 153.973 653 191.76C653 233.707 646.067 268.893 632.2 297.32C618.333 325.4 599.613 346.2 576.04 359.72C552.467 373.24 526.12 380 497 380ZM488.68 160.04C488.68 163.507 489.027 167.667 489.72 172.52C490.413 179.453 490.76 186.56 490.76 193.84C490.76 201.12 490.413 208.227 489.72 215.16C489.027 220.013 488.68 224 488.68 227.12C488.68 232.667 489.547 237 491.28 240.12C493.013 242.893 494.92 244.28 497 244.28C499.08 244.28 500.813 242.72 502.2 239.6C503.933 236.48 504.8 232.32 504.8 227.12C504.8 221.573 504.627 217.587 504.28 215.16C503.24 204.76 502.72 197.653 502.72 193.84C502.72 184.827 503.24 177.72 504.28 172.52C504.627 170.093 504.8 165.933 504.8 160.04C504.8 154.84 503.933 150.853 502.2 148.08C500.813 144.96 499.08 143.4 497 143.4C494.92 143.4 493.013 144.96 491.28 148.08C489.547 150.853 488.68 154.84 488.68 160.04Z" fill="white"/>
<path d="M838.706 381C868.576 381 895.319 374.048 918.937 360.145C942.555 346.242 961.136 325.214 974.682 297.06C988.227 268.558 995 233.627 995 192.265C995 153.684 988.054 121.185 974.161 94.7692C959.921 68.0057 940.992 48.0199 917.374 34.812C893.756 21.604 867.534 15 838.706 15C813.352 15 790.255 19.5185 769.416 28.5555C748.23 37.5926 731.558 50.1054 719.402 66.094C707.246 81.735 701.168 98.9402 701.168 117.709C701.168 138.217 707.767 154.727 720.965 167.239C733.816 179.752 749.966 186.009 769.416 186.009C774.973 186.009 781.225 185.661 788.171 184.966C795.118 183.923 801.717 183.054 807.969 182.359C820.819 179.926 830.718 178.709 837.664 178.709C842.179 178.709 845.826 180.1 848.605 182.88C851.383 185.313 852.773 188.442 852.773 192.265C852.773 195.741 851.383 198.869 848.605 201.65C845.826 204.43 842.179 205.821 837.664 205.821C830.718 205.821 820.819 204.604 807.969 202.171C801.717 201.476 795.118 200.781 788.171 200.085C781.225 199.043 774.973 198.521 769.416 198.521C748.577 198.521 731.385 205.299 717.839 218.855C703.946 232.063 697 249.615 697 271.513C697 291.672 703.252 310.094 715.755 326.778C728.259 343.462 745.451 356.67 767.332 366.402C788.866 376.134 812.657 381 838.706 381Z" fill="white"/>
<path d="M1117.05 380C1089.99 380 1070.22 365.093 1057.73 335.28C1045.24 305.12 1039 257.28 1039 191.76C1039 157.44 1045.07 127.107 1057.21 100.76C1069.7 74.0667 1087.39 53.2667 1110.29 38.36C1133.53 23.4533 1160.93 16 1192.5 16C1224.07 16 1251.3 23.4533 1274.19 38.36C1297.44 53.2667 1315.13 74.0667 1327.27 100.76C1339.76 127.107 1346 157.44 1346 191.76C1346 257.28 1339.76 305.12 1327.27 335.28C1314.78 365.093 1295.01 380 1267.95 380C1243.32 380 1225.63 369.253 1214.87 347.76C1204.12 325.92 1198.74 292.467 1198.74 247.4C1198.74 238.04 1199.26 228.16 1200.31 217.76L1201.35 193.84C1201.35 188.987 1200.48 185.347 1198.74 182.92C1197.01 180.493 1194.93 179.28 1192.5 179.28C1190.07 179.28 1187.99 180.493 1186.26 182.92C1184.52 185.347 1183.65 188.987 1183.65 193.84L1184.69 217.76C1185.74 228.16 1186.26 238.04 1186.26 247.4C1186.26 292.467 1180.88 325.92 1170.13 347.76C1159.37 369.253 1141.68 380 1117.05 380Z" fill="white"/>
<path fill-rule="evenodd" clip-rule="evenodd" d="M1482.89 15.174V15.7207V16.5561V17.3901V18.2227V19.0538V19.8836V20.7119V21.5389V22.3645V23.1886V24.0114V24.8328V25.6529V26.4716V27.2889V28.1049V28.9195V29.7328V30.5447V31.3553V32.1646V32.9726V33.7792V34.5846V35.3886V36.1914V36.9928V37.793V38.5919V39.3895V40.1858V40.9809V41.7748V42.5673V43.3586V44.1487V44.9376V45.7252V46.5116V47.2968V48.0807V48.8635V49.6451V50.4254V51.2046V51.9826V52.7594V53.535V54.3095V55.0828V55.8549V56.6259V57.3958V58.1645V58.932V59.6985V60.4638V61.228V61.9911V62.7531V63.514V64.2738V65.0325V65.7901V66.5466V67.3021V68.0565V68.8099V69.5621V70.3134V71.0636V71.8127V72.5608V73.3079V74.054V74.799V75.5431V76.2861V77.0282V77.7692V78.5093V79.2483V79.9864V80.7236V81.4597V82.1949V82.9292V83.6625V84.3948V85.1262L1482.89 85.8567V86.5863V87.3149V88.0426V88.7694V89.4953V90.2203V90.9445V91.6677V92.39V93.1115V93.8321V94.5518V95.2707V95.9887V96.7059V97.4222V98.1377V98.8524V99.5663V100.279V100.991V101.703V102.413V103.123V103.832V104.54V105.248V105.955V106.66V107.366V108.07V108.774V109.476V110.179V110.88V111.581V112.281V112.98V113.678V114.376V115.073V115.77V116.465V117.16V117.855V118.548V119.241V119.934V120.625V121.317V122.007V122.697V123.386V124.074V124.762V125.449V126.136V126.822V127.507V128.192V128.877V129.56V130.243V130.926V131.608V132.289V132.97V133.65V134.33V135.009V135.688V136.366V137.044V137.721V138.397V139.073V139.749V140.424V141.099V141.773V142.446V143.119V143.792V144.464V145.136V145.807V146.478V147.149V147.819V148.488V149.158V149.826V150.495V151.163V151.83V152.497V153.164V153.83V154.496V155.162V155.827V156.492V157.157V157.821V158.485V159.148V159.812V160.474V161.137V161.799V162.461V163.123V163.784V164.445V165.106V165.766V166.426V167.086V167.746V168.405V169.065V169.724V170.382V171.041V171.699V171.844L1556.03 117.837C1553.67 110.807 1551.13 104.503 1548.51 98.9191C1547.79 97.3971 1547.04 95.7761 1546.25 94.0726L1546.25 94.0645L1546.24 94.0644C1533.56 66.7699 1511.01 18.2722 1482.89 15.174ZM1558.56 125.911L1482.89 181.789V182.203V182.858V183.513V184.168V184.823V185.478V186.132V186.787V187.441V188.095V188.749V189.403V190.057V190.711V191.365V192.019V192.673V193.327V193.98V194.634V195.288V195.941V196.595V197.248V197.902V198.556V199.209V199.863V200.516V201.17V201.824V202.477V203.131V203.785V204.439V205.093V205.747V206.401V207.055V207.709V208.363V209.018V209.672V210.327V210.981V211.636V212.291V212.946V213.601V214.256V214.912V215.567V216.223V216.879V217.535V218.191V218.847V219.504V220.161V220.818V221.475V222.132V222.79V223.447V224.105V224.764V225.422V226.081V226.74V227.399V228.058V228.718V229.378V230.038V230.698V231.359V232.02V232.681V233.343V234.005V234.667V235.33V235.993V236.656V237.319V237.983V238.647V239.312V239.977V240.642V241.308V241.966L1568.39 178.824C1566.42 158.368 1562.9 140.742 1558.56 125.911ZM1482.89 252.012V251.911L1569.17 188.194C1569.79 196.988 1570.12 206.265 1570.12 216.028C1570.12 226.86 1569.35 238.081 1568.11 249.159L1482.89 312.087V311.409V310.678V309.947V309.218V308.489V307.762V307.035V306.309V305.584V304.86V304.136V303.414V302.693V301.972V301.252V300.533V299.815V299.098V298.382V297.666V296.952V296.238V295.525V294.813V294.101V293.391V292.681V291.972V291.264V290.556V289.85V289.144V288.439V287.734V287.031V286.328V285.626V284.924V284.223V283.524V282.824V282.126V281.428V280.731V280.034V279.339V278.644V277.949V277.256V276.563V275.87V275.179V274.488V273.797V273.107V272.418V271.73V271.042V270.355V269.668V268.982V268.297V267.612V266.928V266.244V265.561V264.878V264.196V263.515V262.834V262.154V261.474V260.795L1482.89 260.116V259.438V258.761V258.084V257.407V256.731V256.055V255.38V254.706V254.032V253.358V252.685V252.012ZM1566.71 260.132L1482.89 322.032V322.496V323.243V323.991V324.741V325.491V326.242V326.994V327.748V328.502V329.258V330.014V330.772V331.53V332.29V333.051V333.813V334.576V335.34V336.106V336.872V337.64V338.408V339.178V339.949V340.721V341.495V342.269V343.045V343.822V344.6V345.379V346.159V346.941V347.723V348.507V349.293V350.079V350.867V351.655V352.445V353.237V354.029V354.823V355.618V356.415V357.212V358.011V358.811V359.613V360.416V361.22V362.025V362.832V363.64V364.449V365.259V366.071V366.885V367.699V368.515V369.333V370.151V370.971V371.793V372.616V373.44V374.265V375.092V375.921V376.75V377.581V378.414V379.248V380.083V380.878C1499.96 379.642 1518.42 367.614 1531.39 357.223C1543.24 347.735 1550.94 334.308 1554.72 319.606C1558.62 304.429 1563.5 282.98 1566.71 260.132ZM1479.89 171.699V171.846L1405.83 117.152C1406.63 114.558 1407.42 112.034 1408.21 109.575C1410.47 102.491 1413.53 95.7049 1416.96 89.111C1418.25 86.6497 1419.58 84.042 1420.97 81.3332C1435.18 53.5693 1454.82 15.1928 1479.89 15.0186V15.7207V16.5561V17.3901V18.2227V19.0538V19.8836V20.7119V21.5389V22.3645V23.1886V24.0114V24.8328V25.6529V26.4716V27.2889V28.1049V28.9195V29.7328V30.5447V31.3553V32.1646V32.9726V33.7792V34.5846V35.3886V36.1914V36.9928V37.793V38.5919V39.3895V40.1858V40.9809V41.7747V42.5673V43.3586V44.1487V44.9376V45.7252V46.5116V47.2968V48.0807V48.8635V49.6451V50.4254V51.2046V51.9826V52.7594V53.535V54.3095V55.0828V55.8549V56.6259V57.3958V58.1645V58.932V59.6985V60.4638V61.228V61.9911V62.7531V63.514V64.2738V65.0325V65.7901V66.5466V67.3021V68.0565V68.8099V69.5621V70.3134V71.0636V71.8127V72.5608V73.3079V74.054V74.799V75.5431V76.2861V77.0282V77.7692V78.5093V79.2483V79.9864V80.7236V81.4597V82.1949V82.9292V83.6625V84.3948V85.1262L1479.89 85.8567V86.5863V87.3149V88.0426V88.7694V89.4953V90.2203V90.9445V91.6677V92.39V93.1115V93.8321V94.5518V95.2707V95.9887V96.7059V97.4222V98.1377V98.8524V99.5663V100.279V100.991V101.703V102.413V103.123V103.832V104.54V105.248V105.955V106.66V107.366V108.07V108.774V109.476V110.179V110.88V111.581V112.281V112.98V113.678V114.376V115.073V115.77V116.465V117.16V117.855V118.548V119.241V119.934V120.625V121.317V122.007V122.697V123.386V124.074V124.762V125.449V126.136V126.822V127.507V128.192V128.877V129.56V130.243V130.926V131.608V132.289V132.97V133.65V134.33V135.009V135.688V136.366V137.044V137.721V138.397V139.073V139.749V140.424V141.099V141.773V142.446V143.119V143.792V144.464V145.136V145.807V146.478V147.149V147.819V148.488V149.158V149.826V150.495V151.163V151.83V152.497V153.164V153.83V154.496V155.162V155.827V156.492V157.157V157.821V158.485V159.148V159.812V160.474V161.137V161.799V162.461V163.123V163.784V164.445V165.106V165.766V166.426V167.086V167.746V168.405V169.065V169.724V170.382V171.041V171.699ZM1403.38 125.288L1479.89 181.791V182.203V182.858V183.513V184.168V184.823V185.478V186.132V186.787V187.441V188.095V188.749V189.403V190.057V190.711V191.365V192.019V192.673V193.327V193.98V194.634V195.288V195.941V196.595V197.248V197.902V198.556V199.209V199.863V200.516V201.17V201.824V202.477V203.131V203.785V204.439V205.093V205.747V206.401V207.055V207.709V208.363V209.018V209.672V210.327V210.981V211.636V212.291V212.946V213.601V214.256V214.912V215.567V216.223V216.879V217.535V218.191V218.847V219.504V220.161V220.818V221.475V222.132V222.79V223.447V224.105V224.764V225.422V226.081V226.74V227.399V228.058V228.718V229.378V230.038V230.698V231.359V232.02V232.681V233.343V234.005V234.667V235.33V235.993V236.656V237.319V237.983V238.647V239.312V239.977V240.642V241.308V241.967L1394.02 178.556L1391.87 181.468C1394.29 159.57 1398.74 141.17 1403.38 125.288ZM1391.35 186.532L1479.89 251.912V252.012V252.685V253.358V254.032V254.706V255.38V256.055V256.731V257.407V258.084V258.761V259.438V260.116L1479.89 260.795V261.474V262.154V262.834V263.515V264.196V264.878V265.561V266.244V266.928V267.612V268.297V268.982V269.668V270.355V271.042V271.73V272.418V273.107V273.797V274.488V275.179V275.87V276.563V277.256V277.949V278.644V279.339V280.034V280.731V281.428V282.126V282.824V283.524V284.223V284.924V285.626V286.328V287.031V287.734V288.439V289.144V289.85V290.556V291.264V291.972V292.681V293.391V294.101V294.813V295.525V296.238V296.952V297.666V298.382V299.098V299.815V300.533V301.252V301.972V302.693V303.414V304.136V304.86V305.584V306.309V307.035V307.762V308.489V309.218V309.947V310.678V311.409V312.088L1394.02 248.677L1392.24 251.089C1390.86 239.386 1390 227.489 1390 216.028C1390 205.549 1390.49 195.74 1391.35 186.532ZM1393.11 257.948L1479.89 322.033V322.496V323.243V323.991V324.741V325.491V326.242V326.994V327.748V328.502V329.258V330.014V330.772V331.53V332.29V333.051V333.813V334.576V335.34V336.106V336.872V337.64V338.408V339.178V339.949V340.721V341.495V342.269V343.045V343.822V344.6V345.379V346.159V346.941V347.723V348.507V349.293V350.079V350.867V351.655V352.445V353.237V354.029V354.823V355.618V356.415V357.212V358.011V358.811V359.613V360.416V361.22V362.025V362.832V363.64V364.449V365.259V366.071V366.885V367.699V368.515V369.333V370.151V370.971V371.793V372.616V373.44V374.265V375.092V375.921V376.75V377.581V378.414V379.248V380.083V380.92H1482.23C1481.51 380.961 1480.78 380.982 1480.06 380.982C1462.22 380.982 1442.43 368.19 1428.73 357.223C1416.88 347.735 1409.18 334.308 1405.4 319.606C1401.38 303.947 1396.31 281.61 1393.11 257.948Z" fill="white"/>
<path d="M1638.58 75.7147C1654.88 36.2511 1686.1 16.5193 1732.24 16.5193C1757.56 16.5193 1777.51 23.6158 1792.08 37.8088C1806.65 52.0019 1816.53 68.4451 1821.74 87.1384C1827.29 105.485 1830.06 122.794 1830.06 139.064C1830.06 151.18 1829.54 167.104 1828.5 186.836L1827.46 201.375C1827.46 207.26 1828.33 211.933 1830.06 215.395C1832.14 218.511 1834.4 220.068 1836.83 220.068C1839.26 220.068 1841.34 218.511 1843.07 215.395C1845.15 211.933 1846.19 207.26 1846.19 201.375C1846.19 197.221 1845.67 192.375 1844.63 186.836C1842.9 170.22 1842.03 154.296 1842.03 139.064C1842.03 103.062 1846.89 73.6377 1856.6 50.7903C1866.66 27.5968 1881.75 16 1901.87 16C1926.5 16 1945.92 28.6353 1960.15 53.9059C1974.72 78.8302 1982.87 114.486 1984.6 160.873L1985.12 183.72C1985.12 235.3 1976.97 280.822 1960.67 320.285C1944.36 359.749 1913.14 379.481 1867.01 379.481C1841.68 379.481 1821.74 372.384 1807.17 358.191C1792.6 343.998 1782.54 327.728 1776.99 309.381C1771.79 290.688 1769.18 273.206 1769.18 256.936C1769.18 244.82 1769.7 228.896 1770.74 209.164L1771.79 194.625C1771.79 188.74 1770.74 184.24 1768.66 181.124C1766.93 177.662 1764.85 175.932 1762.42 175.932C1759.99 175.932 1757.74 177.662 1755.65 181.124C1753.92 184.24 1753.05 188.74 1753.05 194.625C1753.05 198.433 1753.57 203.279 1754.61 209.164C1756.35 225.434 1757.22 241.358 1757.22 256.936C1757.22 292.938 1752.19 322.535 1742.13 345.729C1732.41 368.576 1717.5 380 1697.38 380C1672.75 380 1653.15 367.538 1638.58 342.613C1624.36 317.343 1616.38 281.514 1614.64 235.127L1614.12 212.28C1614.12 160.7 1622.27 115.178 1638.58 75.7147Z" fill="white"/>
<path d="M2245.44 248.773C2237.12 248.773 2227.76 248.078 2217.36 246.69C2211.82 245.648 2206.96 245.127 2202.8 245.127C2197.6 245.127 2193.62 246.169 2190.84 248.252C2188.07 249.988 2186.68 252.244 2186.68 255.021C2186.68 257.799 2188.07 260.229 2190.84 262.312C2193.62 264.048 2197.6 264.916 2202.8 264.916C2206.96 264.916 2211.82 264.395 2217.36 263.353C2227.76 261.965 2237.12 261.27 2245.44 261.27C2263.82 261.27 2279.94 265.61 2293.8 274.289C2308.02 282.968 2315.12 293.73 2315.12 306.575C2315.12 329.141 2301.95 347.02 2275.6 360.212C2249.6 373.404 2215.11 380 2172.12 380C2120.82 379.306 2084.07 371.321 2061.88 356.046C2040.04 340.423 2029.12 316.122 2029.12 283.142C2029.12 251.55 2037.44 229.331 2054.08 216.486C2070.72 203.641 2094.3 197.219 2124.8 197.219C2133.12 197.219 2142.48 197.913 2152.88 199.302C2158.78 200.343 2163.63 200.864 2167.44 200.864C2171.95 200.864 2175.42 199.996 2177.84 198.26C2180.27 196.177 2181.48 193.747 2181.48 190.97C2181.48 188.193 2180.27 185.936 2177.84 184.2C2175.42 182.117 2171.95 181.076 2167.44 181.076C2163.63 181.076 2158.78 181.597 2152.88 182.638C2142.48 184.027 2133.12 184.721 2124.8 184.721C2094.64 184.721 2071.07 179.34 2054.08 168.578C2037.44 157.816 2029.12 139.937 2029.12 114.941C2029.12 82.6552 2040.22 58.1803 2062.4 41.5165C2084.94 24.5055 2121.51 16 2172.12 16C2215.8 16 2250.47 22.0753 2276.12 34.226C2302.12 46.3768 2315.12 63.2141 2315.12 84.7382C2315.12 97.5832 2308.19 107.651 2294.32 114.941C2280.8 122.232 2264.51 125.877 2245.44 125.877C2235.74 125.877 2227.42 125.009 2220.48 123.273C2214.24 122.579 2210.08 122.232 2208 122.232C2203.5 122.232 2200.03 123.273 2197.6 125.356C2195.18 127.092 2193.96 129.349 2193.96 132.126C2193.96 134.903 2195.18 137.333 2197.6 139.416C2200.03 141.152 2203.5 142.02 2208 142.02C2210.08 142.02 2214.24 141.673 2220.48 140.979C2227.42 139.243 2235.74 138.375 2245.44 138.375C2263.82 138.375 2279.07 143.062 2291.2 152.435C2303.68 161.808 2309.92 174.653 2309.92 190.97C2309.92 208.328 2303.68 222.388 2291.2 233.15C2279.07 243.565 2263.82 248.773 2245.44 248.773Z" fill="white"/>
</svg>
