<svg width="1366" height="769" viewBox="0 0 1366 769" fill="none" xmlns="http://www.w3.org/2000/svg">
<path fill-rule="evenodd" clip-rule="evenodd" d="M1218 527.322C1218 526.394 1218 525.93 1217.99 525.537C1217.57 512.898 1207.42 502.749 1194.79 502.335C1194.39 502.322 1193.93 502.322 1193 502.322H1176.4C1162.96 502.322 1156.24 502.322 1151.1 504.938C1146.59 507.239 1142.92 510.911 1140.62 515.426C1138 520.56 1138 527.281 1138 540.722V548.322C1138 557.631 1138 562.285 1139.27 566.037C1141.67 573.102 1147.22 578.65 1154.29 581.049C1158.04 582.322 1162.69 582.322 1172 582.322H1190C1198.84 582.322 1206 589.486 1206 598.322C1206 607.159 1198.84 614.322 1190 614.322H1138H1132H1096.4C1082.96 614.322 1076.24 614.322 1071.1 616.938C1066.59 619.239 1062.92 622.911 1060.62 627.426C1058 632.56 1058 639.281 1058 652.722V655.922C1058 669.364 1058 676.084 1060.62 681.218C1062.92 685.734 1066.59 689.405 1071.1 691.706C1076.24 694.322 1082.96 694.322 1096.4 694.322H1132H1138H1152.5C1161.34 694.322 1165.76 694.322 1169.34 695.473C1176.71 697.84 1182.48 703.614 1184.85 710.981C1186 714.561 1186 718.982 1186 727.822C1186 736.663 1186 741.083 1187.15 744.664C1189.52 752.031 1195.29 757.805 1202.66 760.172C1206.24 761.322 1210.66 761.322 1219.5 761.322H1227.6C1241.04 761.322 1247.76 761.322 1252.9 758.706C1257.41 756.405 1261.08 752.734 1263.38 748.218C1266 743.084 1266 736.364 1266 722.922V708.322C1266 705.536 1266 704.143 1265.88 702.97C1264.76 691.575 1255.75 682.56 1244.35 681.438C1243.18 681.322 1241.79 681.322 1239 681.322H1236.5C1236.04 681.322 1235.8 681.322 1235.61 681.319C1222.66 681.107 1212.22 670.662 1212 657.715C1212 657.519 1212 657.286 1212 656.822C1212 656.358 1212 656.126 1212 655.93C1212.22 642.982 1222.66 632.537 1235.61 632.325C1235.8 632.322 1236.04 632.322 1236.5 632.322H1286H1327.6C1341.04 632.322 1347.76 632.322 1352.9 629.706C1357.41 627.405 1361.08 623.734 1363.38 619.218C1366 614.084 1366 607.364 1366 593.922V590.722C1366 577.281 1366 570.56 1363.38 565.426C1361.08 560.911 1357.41 557.239 1352.9 554.938C1347.76 552.322 1341.04 552.322 1327.6 552.322H1286H1243C1242.07 552.322 1241.61 552.322 1241.21 552.309C1228.58 551.896 1218.43 541.746 1218.01 529.108C1218 528.715 1218 528.251 1218 527.322ZM995 653.322C995 643.078 995 637.955 993.462 633.868C991.027 627.4 985.922 622.295 979.454 619.861C975.367 618.322 970.245 618.322 960 618.322H953.4C939.959 618.322 933.238 618.322 928.104 620.938C923.588 623.239 919.917 626.911 917.616 631.426C915 636.56 915 643.281 915 656.722V672.822C915 674.215 915 674.911 915.029 675.5C915.635 687.829 925.493 697.688 937.822 698.293C938.411 698.322 939.107 698.322 940.5 698.322C941.893 698.322 942.589 698.322 943.178 698.351C955.507 698.957 965.365 708.816 965.971 721.145C966 721.733 966 722.429 966 723.822V733.322C966 743.567 966 748.689 967.538 752.776C969.973 759.245 975.078 764.349 981.546 766.784C985.633 768.322 990.755 768.322 1001 768.322H1007.6C1021.04 768.322 1027.76 768.322 1032.9 765.706C1037.41 763.405 1041.08 759.734 1043.38 755.218C1046 750.084 1046 743.364 1046 729.922V713.822C1046 712.429 1046 711.733 1045.97 711.145C1045.37 698.816 1035.51 688.957 1023.18 688.351C1022.59 688.322 1021.89 688.322 1020.5 688.322C1019.11 688.322 1018.41 688.322 1017.82 688.293C1005.49 687.688 995.635 677.829 995.029 665.5C995 664.911 995 664.215 995 662.822V653.322Z" fill="#4E4E4E" fill-opacity="0.05"/>
<path fill-rule="evenodd" clip-rule="evenodd" d="M248 23.5C248 10.5213 237.479 0 224.5 0H192C178.745 0 168 10.7452 168 24V56C168 69.2548 178.745 80 192 80H213.5C226.479 80 237 90.5213 237 103.5C237 116.479 247.521 127 260.5 127H293C306.255 127 317 116.255 317 103V71C317 57.7452 306.255 47 293 47H271.5C258.521 47 248 36.4787 248 23.5ZM0 104C0 90.7452 10.7452 80 24 80H56C69.2548 80 80 90.7452 80 104V125C80 138.255 90.7452 149 104 149H127C140.255 149 151 159.745 151 173V205C151 218.255 140.255 229 127 229H104C90.7452 229 80 239.745 80 253V268C80 281.255 69.2548 292 56 292H24C10.7452 292 0 281.255 0 268V236C0 222.745 10.7452 212 24 212H47C60.2548 212 71 201.255 71 188V184C71 170.745 60.2548 160 47 160H24C10.7452 160 0 149.255 0 136V104Z" fill="#4E4E4E" fill-opacity="0.05"/>
</svg>
