<svg width="60" height="60" viewBox="0 0 60 60" fill="none" xmlns="http://www.w3.org/2000/svg">
<g filter="url(#filter0_ddd_248_138)">
<rect x="4" y="4" width="52" height="52" rx="12" fill="#15131D"/>
<rect x="4.58594" y="4.58594" width="50.8281" height="50.8281" rx="11.4141" stroke="white" stroke-opacity="0.15" stroke-width="1.17188"/>
</g>
<path d="M23.6186 39.9117L24.6683 40.5267C27.1036 41.9432 29.9713 42.4249 32.7358 41.8819C35.5004 41.3389 37.9728 39.8083 39.6915 37.5759C41.4102 35.3435 42.2576 32.5619 42.0756 29.7504C41.8936 26.9389 40.6946 24.2898 38.7024 22.2976C36.7102 20.3054 34.0611 19.1064 31.2496 18.9244C28.4381 18.7424 25.6565 19.5898 23.4241 21.3085C21.1917 23.0272 19.6611 25.4996 19.1181 28.2642C18.5751 31.0287 19.0568 33.8964 20.4733 36.3317L21.0864 37.3814L20.1374 40.8626L23.6186 39.9136V39.9117ZM16.007 44.9987L17.9678 37.7933C16.1962 34.7492 15.5932 31.1643 16.2714 27.708C16.9495 24.2518 18.8625 21.1606 21.6531 19.0117C24.4437 16.8627 27.9211 15.8029 31.4359 16.0302C34.9506 16.2576 38.2625 17.7564 40.753 20.247C43.2436 22.7375 44.7424 26.0494 44.9698 29.5641C45.1971 33.0789 44.1373 36.5563 41.9883 39.3469C39.8394 42.1375 36.7482 44.0505 33.292 44.7286C29.8357 45.4068 26.2508 44.8038 23.2067 43.0322L16.007 44.9987ZM25.27 23.6939C25.4639 23.6796 25.6585 23.6777 25.8527 23.6882L26.0881 23.7109C26.3178 23.7375 26.5721 23.878 26.6575 24.0716C27.0903 25.0529 27.5117 26.04 27.916 27.0308C28.0071 27.251 27.954 27.5338 27.7831 27.809C27.6635 27.9951 27.5364 28.1754 27.3997 28.3481C27.2365 28.5569 26.8834 28.9441 26.8834 28.9441C26.8834 28.9441 26.741 29.115 26.7961 29.3276C26.8151 29.4092 26.8834 29.5269 26.9441 29.6256L27.0296 29.7641C27.3997 30.3829 27.8989 31.0112 28.5082 31.6016C28.6809 31.7705 28.8499 31.9432 29.034 32.1046C29.7133 32.7034 30.4818 33.1927 31.3118 33.5547L31.3175 33.5566C31.4409 33.6098 31.5035 33.6402 31.6838 33.7161C31.773 33.7541 31.866 33.7863 31.961 33.811C32.0582 33.8356 32.1605 33.8308 32.2551 33.7974C32.3497 33.764 32.4322 33.7033 32.4924 33.6231C33.5421 32.3513 33.6389 32.2697 33.6465 32.2697V32.2716C33.7196 32.2037 33.8064 32.1522 33.901 32.1204C33.9955 32.0887 34.0958 32.0774 34.1951 32.0875C34.2832 32.0913 34.3699 32.1106 34.4513 32.1444C35.222 32.4975 36.4823 33.0479 36.4823 33.0479L37.3251 33.4276C37.4675 33.494 37.5966 33.6554 37.6004 33.811C37.6061 33.9059 37.6155 34.0635 37.5814 34.352C37.5397 34.717 37.4484 35.0746 37.3099 35.4149C37.2325 35.5756 37.13 35.723 37.0062 35.8515C36.8593 36.0052 36.6986 36.145 36.526 36.2691C36.4668 36.314 36.4067 36.3576 36.3457 36.4001C36.1654 36.514 35.9793 36.6203 35.7895 36.719C35.4164 36.9173 35.0043 37.0313 34.5823 37.053C34.3128 37.0663 34.0451 37.0872 33.7756 37.072L32.9518 36.9467C30.8905 36.4044 28.9842 35.3885 27.3845 33.9799C27.0561 33.6914 26.7543 33.382 26.443 33.0726C25.1523 31.7895 24.1785 30.4038 23.5863 29.096C23.2834 28.4542 23.1197 27.7556 23.1061 27.046C23.1008 26.1665 23.3887 25.3103 23.9242 24.6126C24.0305 24.4759 24.1311 24.3335 24.3038 24.1703C24.4286 24.04 24.5719 23.9287 24.729 23.84C24.897 23.7554 25.0804 23.7057 25.2681 23.6939H25.27Z" fill="white"/>
<defs>
<filter id="filter0_ddd_248_138" x="2.59375" y="3.29688" width="54.8125" height="54.8125" filterUnits="userSpaceOnUse" color-interpolation-filters="sRGB">
<feFlood flood-opacity="0" result="BackgroundImageFix"/>
<feColorMatrix in="SourceAlpha" type="matrix" values="0 0 0 0 0 0 0 0 0 0 0 0 0 0 0 0 0 0 127 0" result="hardAlpha"/>
<feOffset dy="0.703125"/>
<feGaussianBlur stdDeviation="0.703125"/>
<feComposite in2="hardAlpha" operator="out"/>
<feColorMatrix type="matrix" values="0 0 0 0 0 0 0 0 0 0 0 0 0 0 0 0 0 0 0.1 0"/>
<feBlend mode="normal" in2="BackgroundImageFix" result="effect1_dropShadow_248_138"/>
<feColorMatrix in="SourceAlpha" type="matrix" values="0 0 0 0 0 0 0 0 0 0 0 0 0 0 0 0 0 0 127 0" result="hardAlpha"/>
<feOffset dy="0.46875"/>
<feGaussianBlur stdDeviation="0.351562"/>
<feComposite in2="hardAlpha" operator="out"/>
<feColorMatrix type="matrix" values="0 0 0 0 0 0 0 0 0 0 0 0 0 0 0 0 0 0 0.1 0"/>
<feBlend mode="normal" in2="effect1_dropShadow_248_138" result="effect2_dropShadow_248_138"/>
<feColorMatrix in="SourceAlpha" type="matrix" values="0 0 0 0 0 0 0 0 0 0 0 0 0 0 0 0 0 0 127 0" result="hardAlpha"/>
<feOffset dy="0.117188"/>
<feGaussianBlur stdDeviation="0.117188"/>
<feComposite in2="hardAlpha" operator="out"/>
<feColorMatrix type="matrix" values="0 0 0 0 0 0 0 0 0 0 0 0 0 0 0 0 0 0 0.1 0"/>
<feBlend mode="normal" in2="effect2_dropShadow_248_138" result="effect3_dropShadow_248_138"/>
<feBlend mode="normal" in="SourceGraphic" in2="effect3_dropShadow_248_138" result="shape"/>
</filter>
</defs>
</svg>
